# xmcd
#
# Track frame offsets: 
#        150
#        20067
#        41941
#        70912
#        89422
#        105692
#        125506
#        143931
#        155297
#        176498
#        198333
#
# Disc length: 2907 seconds
#
# Revision: 0
# Processed by: cddbd v1.5.2PL0 Copyright (c) Steve Scherf et al.
# Submitted via: ExactAudioCopyFreeDBPlugin 1.0
#
DISCID=9c0b590b
DTITLE=Carl Verheyen - Mustang Run 
DYEAR=2013
DGENRE=Blues
TTITLE0=Taylor's Blues
TTITLE1=Julietta And The St. George
TTITLE2=Fusioneers Disease
TTITLE3=Last Days Of Autumn
TTITLE4=Amandola
TTITLE5=Bloody Well Right
TTITLE6=Riding The Bean
TTITLE7=Passage To Run
TTITLE8=Mustang Run
TTITLE9=Fourth Door On The Right
TTITLE10=Spirit Of Julia
EXTD=
EXTT0=
EXTT1=
EXTT2=
EXTT3=
EXTT4=
EXTT5=
EXTT6=
EXTT7=
EXTT8=
EXTT9=
EXTT10=
PLAYORDER=
